<svg width="64" height="64" viewBox="0 0 64 64" fill="none" xmlns="http://www.w3.org/2000/svg">
<path d="M49.3798 24.9917L49.4439 25.0201L49.4424 25.0186L49.3798 24.9917Z" fill="url(#paint0_linear_3010_155)"/>
<path d="M24.3205 62.021C24.3205 62.0207 24.3205 62.0207 24.3202 62.0204C24.3202 62.0204 24.3202 62.0201 24.3199 62.0201L24.3205 62.021Z" fill="url(#paint1_linear_3010_155)"/>
<path d="M30.1211 63.9929C30.1193 63.9947 30.1158 63.9947 30.1141 63.9964C30.1124 63.9981 30.1106 63.9981 30.1089 63.9999L30.1211 63.9929Z" fill="url(#paint2_linear_3010_155)"/>
<path d="M14.283 42.4383C14.2806 42.4359 14.2781 42.4334 14.2756 42.4309C14.2732 42.4285 14.2707 42.426 14.2682 42.4236L14.283 42.4383Z" fill="url(#paint3_linear_3010_155)"/>
<path d="M35.2333 37.2395C35.2358 37.242 35.2383 37.2445 35.2408 37.247C35.2433 37.2495 35.2458 37.2495 35.2458 37.252L35.2333 37.2395Z" fill="url(#paint4_linear_3010_155)"/>
<path d="M33.464 31.5251C33.4623 31.5234 33.4606 31.5199 33.4588 31.5182C33.4571 31.5164 33.4553 31.5147 33.4536 31.513L33.464 31.5251Z" fill="url(#paint5_linear_3010_155)"/>
<path d="M51.0513 26.1385L51.0644 26.1517L51.0513 26.1385Z" fill="url(#paint6_linear_3010_155)"/>
<path d="M49.4461 25.0209C49.4461 25.0209 49.4472 25.0209 49.4472 25.022C49.4472 25.022 49.4483 25.022 49.4483 25.0231L49.4461 25.0209Z" fill="url(#paint7_linear_3010_155)"/>
<path d="M26.4925 59.825L26.4914 59.8273L26.4925 59.825Z" fill="url(#paint8_linear_3010_155)"/>
<path d="M40.2685 14.7905L40.2662 14.7882L40.2685 14.7905Z" fill="url(#paint9_linear_3010_155)"/>
<path d="M49.9113 29.6014C49.9084 28.9476 49.6616 28.35 49.2301 27.8911C49.0107 27.6644 48.7437 27.471 48.4348 27.3354C48.1331 27.1968 47.7882 27.1275 47.4374 27.1275H38.1482L39.1657 22.6936L40.1457 18.4257C40.1529 18.4011 40.1558 18.3737 40.1602 18.3492L40.609 16.4036C40.6437 16.2607 40.661 16.112 40.661 15.9662C40.661 15.5491 40.5253 15.1392 40.2684 14.7914L39.8412 14.2213H35.9139L36.8275 10.2218L36.4494 9.71805V9.71516C36.4219 9.67619 36.3873 9.64155 36.3555 9.60402C36.126 9.30525 35.8027 9.07577 35.4073 8.98196C35.2644 8.9502 35.1229 8.94443 34.9801 8.94732C34.9483 8.94443 34.9209 8.94009 34.8891 8.94009H24.1406C22.9874 8.94009 21.9901 9.73538 21.7317 10.8583L21.0923 13.6454L19.7442 19.5284L15.4243 38.3783C15.3825 38.5631 15.3623 38.7507 15.3623 38.934C15.3623 39.6008 15.6336 40.2157 16.0753 40.6645C16.5097 41.1134 17.1491 41.405 17.8333 41.3977H31.0008L29.3467 48.1785L28.8358 50.2742L28.0015 53.6805L26.5005 59.8277C26.4658 59.9604 26.4485 60.0889 26.4485 60.2419C26.4485 60.4887 26.5048 60.7427 26.6087 60.9607C26.7617 61.2912 27.0042 61.5409 27.2683 61.704C27.5353 61.8642 27.8341 61.958 28.1646 61.958C28.4316 61.958 28.7073 61.8959 28.9599 61.7632C29.2139 61.6304 29.4362 61.4297 29.582 61.2075L29.5921 61.1974L34.2252 54.1597L38.5032 47.6647L49.4783 30.9899L49.4754 30.987C49.7612 30.567 49.9113 30.0705 49.9113 29.6014ZM35.5964 45.9558L32.027 51.3769L32.0299 51.3596L32.8078 48.1756L34.166 42.6087C34.1689 42.5986 34.1689 42.5885 34.1732 42.577L34.2872 42.1151C34.3493 41.8538 34.3811 41.5897 34.3811 41.3299C34.3811 40.4365 34.0202 39.6138 33.4328 39.0148C32.8482 38.4173 32.0039 38.0319 31.0802 38.0348H18.9518L24.8522 12.3045H32.9002L32.3748 14.5604V14.5633C32.333 14.7481 32.3128 14.9357 32.3128 15.119C32.3128 15.7902 32.5841 16.405 33.0214 16.8496C33.4588 17.2984 34.0953 17.59 34.7838 17.5857H36.8824L35.7118 22.6907L35.1388 25.1819L34.6134 27.4653C34.5716 27.65 34.5514 27.8405 34.5514 28.021C34.5514 28.6921 34.8227 29.307 35.2644 29.7544C35.6988 30.1989 36.3382 30.4876 37.0224 30.4876H45.7733L35.5964 45.9558Z" fill="url(#paint10_linear_3010_155)"/>
<path d="M25.9141 14.8896H30.8965C31.0827 14.8896 31.2328 14.7395 31.2328 14.5533C31.2328 14.3671 31.0827 14.217 30.8965 14.217H25.9141C25.728 14.217 25.5779 14.3671 25.5779 14.5533C25.5779 14.7395 25.7294 14.8896 25.9141 14.8896Z" fill="#FA2435"/>
<path d="M25.3366 17.4498H30.8343C31.0205 17.4498 31.1706 17.2997 31.1706 17.1135C31.1706 16.9273 31.0205 16.7772 30.8343 16.7772H25.3366C25.1504 16.7772 25.0003 16.9273 25.0003 17.1135C25.0003 17.2997 25.1504 17.4498 25.3366 17.4498Z" fill="#FA2435"/>
<path d="M24.7364 20.009H34.7647C34.9509 20.009 35.101 19.8589 35.101 19.6727C35.101 19.4865 34.9509 19.3364 34.7647 19.3364H24.7364C24.5503 19.3364 24.4002 19.4865 24.4002 19.6727C24.3987 19.8589 24.5503 20.009 24.7364 20.009Z" fill="#FA2435"/>
<path d="M24.1659 22.5682H34.2028C34.389 22.5682 34.5392 22.4181 34.5392 22.2319C34.5392 22.0457 34.389 21.8956 34.2028 21.8956H24.1659C23.9797 21.8956 23.8296 22.0457 23.8296 22.2319C23.8296 22.4181 23.9797 22.5682 24.1659 22.5682Z" fill="#FA2435"/>
<path d="M23.5518 25.1274H33.619C33.8052 25.1274 33.9553 24.9773 33.9553 24.7911C33.9553 24.6049 33.8052 24.4548 33.619 24.4548H23.5518C23.3656 24.4548 23.2155 24.6049 23.2155 24.7911C23.2155 24.9758 23.3656 25.1274 23.5518 25.1274Z" fill="#FA2435"/>
<path d="M22.9864 27.6866H33.0234C33.2096 27.6866 33.3597 27.5365 33.3597 27.3503C33.3597 27.1641 33.2096 27.014 33.0234 27.014H22.9864C22.8003 27.014 22.6502 27.1641 22.6502 27.3503C22.6487 27.5365 22.8003 27.6866 22.9864 27.6866Z" fill="#FA2435"/>
<path d="M22.3444 30.2457H22.4079H32.3813H32.4448C32.631 30.2457 32.7811 30.0956 32.7811 29.9095C32.7811 29.7233 32.631 29.5732 32.4448 29.5732H32.3813H22.4079H22.3444C22.1582 29.5732 22.0081 29.7233 22.0081 29.9095C22.0081 30.0956 22.1582 30.2457 22.3444 30.2457Z" fill="#FA2435"/>
<path d="M21.6848 32.1313C21.4987 32.1313 21.3485 32.2814 21.3485 32.4676C21.3485 32.6538 21.4987 32.8039 21.6848 32.8039H21.7483H41.3993H41.4628C41.649 32.8039 41.7991 32.6538 41.7991 32.4676C41.7991 32.2814 41.649 32.1313 41.4628 32.1313H41.3993H21.7483H21.6848Z" fill="#FA2435"/>
<path d="M39.9663 34.6915H21.0933C20.9071 34.6915 20.757 34.8416 20.757 35.0278C20.757 35.214 20.9071 35.3641 21.0933 35.3641H39.9663C40.1525 35.3641 40.3026 35.214 40.3026 35.0278C40.3026 34.8431 40.1525 34.6915 39.9663 34.6915Z" fill="#FA2435"/>
<path d="M53.0004 11.4312L34.6311 0.824137C33.6757 0.272784 32.6119 0 31.5424 0C30.4772 0 29.4092 0.274227 28.458 0.824137L10.0887 11.4312C8.17486 12.5339 7 14.5733 7 16.7787L7 37.9885C7 40.1968 8.17341 42.2333 10.0887 43.3404L25.7186 52.3612L27.9499 43.4746L25.5093 48.3559L17.8308 43.922L13.5051 41.4265L11.7716 40.4248C10.9013 39.924 10.3658 38.9945 10.3658 37.9885V16.7787C10.3658 15.7771 10.8999 14.8475 11.7716 14.3467L19.3535 9.9662L25.5136 6.41127L30.1424 3.73966C30.5754 3.48708 31.0589 3.36584 31.5438 3.36584C32.0317 3.36584 32.5152 3.48852 32.9497 3.73966L51.3189 14.3467C52.1893 14.8475 52.7247 15.7771 52.7247 16.7787V37.9885C52.7247 38.9945 52.1907 39.924 51.3189 40.4248L45.0275 44.0548L46.8807 39.4766L39.0795 51.3768L53.0019 43.3404C54.9114 42.2333 56.0906 40.1968 56.0906 37.9885V16.7787C56.0877 14.5748 54.91 12.5339 53.0004 11.4312Z" fill="url(#paint11_linear_3010_155)"/>
<defs>
<linearGradient id="paint0_linear_3010_155" x1="49.3797" y1="25.0053" x2="49.4436" y2="25.0053" gradientUnits="userSpaceOnUse">
<stop stop-color="#BA24ED"/>
<stop offset="1" stop-color="#01EBFA"/>
</linearGradient>
<linearGradient id="paint1_linear_3010_155" x1="24.3202" y1="62.0206" x2="24.3205" y2="62.0206" gradientUnits="userSpaceOnUse">
<stop stop-color="#BA24ED"/>
<stop offset="1" stop-color="#01EBFA"/>
</linearGradient>
<linearGradient id="paint2_linear_3010_155" x1="30.1087" y1="63.9967" x2="30.121" y2="63.9967" gradientUnits="userSpaceOnUse">
<stop stop-color="#BA24ED"/>
<stop offset="1" stop-color="#01EBFA"/>
</linearGradient>
<linearGradient id="paint3_linear_3010_155" x1="14.269" y1="42.43" x2="14.2835" y2="42.43" gradientUnits="userSpaceOnUse">
<stop stop-color="#BA24ED"/>
<stop offset="1" stop-color="#01EBFA"/>
</linearGradient>
<linearGradient id="paint4_linear_3010_155" x1="35.2328" y1="37.2466" x2="35.2451" y2="37.2466" gradientUnits="userSpaceOnUse">
<stop stop-color="#BA24ED"/>
<stop offset="1" stop-color="#01EBFA"/>
</linearGradient>
<linearGradient id="paint5_linear_3010_155" x1="33.4515" y1="31.5188" x2="33.4632" y2="31.5188" gradientUnits="userSpaceOnUse">
<stop stop-color="#BA24ED"/>
<stop offset="1" stop-color="#01EBFA"/>
</linearGradient>
<linearGradient id="paint6_linear_3010_155" x1="51.0509" y1="26.1448" x2="51.0644" y2="26.1448" gradientUnits="userSpaceOnUse">
<stop stop-color="#BA24ED"/>
<stop offset="1" stop-color="#01EBFA"/>
</linearGradient>
<linearGradient id="paint7_linear_3010_155" x1="49.4459" y1="25.0211" x2="49.4487" y2="25.0211" gradientUnits="userSpaceOnUse">
<stop stop-color="#BA24ED"/>
<stop offset="1" stop-color="#01EBFA"/>
</linearGradient>
<linearGradient id="paint8_linear_3010_155" x1="26.4919" y1="59.8259" x2="26.4923" y2="59.8259" gradientUnits="userSpaceOnUse">
<stop stop-color="#BA24ED"/>
<stop offset="1" stop-color="#01EBFA"/>
</linearGradient>
<linearGradient id="paint9_linear_3010_155" x1="40.2665" y1="14.7894" x2="40.2681" y2="14.7894" gradientUnits="userSpaceOnUse">
<stop stop-color="#BA24ED"/>
<stop offset="1" stop-color="#01EBFA"/>
</linearGradient>
<linearGradient id="paint10_linear_3010_155" x1="8.8431" y1="52.5975" x2="53.5689" y2="7.87175" gradientUnits="userSpaceOnUse">
<stop stop-color="#FC9132"/>
<stop offset="0.0615" stop-color="#FC9132"/>
<stop offset="0.5" stop-color="#FA0036"/>
<stop offset="0.6313" stop-color="#E7055F"/>
<stop offset="0.8833" stop-color="#C40EAA"/>
<stop offset="1" stop-color="#B611C7"/>
</linearGradient>
<linearGradient id="paint11_linear_3010_155" x1="7.5883" y1="51.3401" x2="52.3133" y2="6.6151" gradientUnits="userSpaceOnUse">
<stop stop-color="#FC9132"/>
<stop offset="0.0615" stop-color="#FC9132"/>
<stop offset="0.5" stop-color="#FA0036"/>
<stop offset="0.6313" stop-color="#E7055F"/>
<stop offset="0.8833" stop-color="#C40EAA"/>
<stop offset="1" stop-color="#B611C7"/>
</linearGradient>
</defs>
</svg>
